<svg width="428" height="926" viewBox="0 0 428 926" fill="none" xmlns="http://www.w3.org/2000/svg">
<g clip-path="url(#clip0_1126_1954)">
<rect width="428" height="926" fill="white"/>
<path d="M201.062 413H194.63V401.544H196.102V411.592H201.062V413ZM201.735 409.08C201.735 407.875 202.114 406.877 202.871 406.088C203.639 405.299 204.604 404.904 205.767 404.904C206.93 404.904 207.89 405.299 208.647 406.088C209.415 406.877 209.799 407.875 209.799 409.08C209.799 410.296 209.415 411.293 208.647 412.072C207.89 412.861 206.93 413.256 205.767 413.256C204.604 413.256 203.639 412.861 202.871 412.072C202.114 411.283 201.735 410.285 201.735 409.08ZM203.207 409.08C203.207 409.923 203.452 410.605 203.943 411.128C204.434 411.651 205.042 411.912 205.767 411.912C206.492 411.912 207.1 411.651 207.591 411.128C208.082 410.605 208.327 409.923 208.327 409.08C208.327 408.248 208.082 407.571 207.591 407.048C207.09 406.515 206.482 406.248 205.767 406.248C205.052 406.248 204.444 406.515 203.943 407.048C203.452 407.571 203.207 408.248 203.207 409.08ZM214.496 411.912C215.221 411.912 215.813 411.651 216.272 411.128C216.752 410.605 216.992 409.923 216.992 409.08C216.992 408.259 216.752 407.581 216.272 407.048C215.803 406.515 215.211 406.248 214.496 406.248C213.792 406.248 213.2 406.515 212.72 407.048C212.24 407.581 212 408.259 212 409.08C212 409.912 212.24 410.589 212.72 411.112C213.2 411.645 213.792 411.912 214.496 411.912ZM214.448 416.712C214.011 416.712 213.6 416.653 213.216 416.536C212.832 416.429 212.48 416.275 212.16 416.072C211.851 415.869 211.584 415.629 211.36 415.352C211.136 415.075 210.965 414.765 210.848 414.424L212.24 413.848C212.4 414.307 212.677 414.675 213.072 414.952C213.467 415.229 213.925 415.368 214.448 415.368C215.248 415.368 215.872 415.128 216.32 414.648C216.768 414.168 216.992 413.507 216.992 412.664V411.912H216.928C216.651 412.328 216.272 412.659 215.792 412.904C215.323 413.139 214.811 413.256 214.256 413.256C213.232 413.256 212.352 412.856 211.616 412.056C210.891 411.235 210.528 410.243 210.528 409.08C210.528 407.917 210.891 406.931 211.616 406.12C212.352 405.309 213.232 404.904 214.256 404.904C214.811 404.904 215.323 405.027 215.792 405.272C216.272 405.507 216.651 405.832 216.928 406.248H216.992V405.16H218.4V412.664C218.4 413.923 218.043 414.909 217.328 415.624C216.603 416.349 215.643 416.712 214.448 416.712ZM225.294 402.456C225.294 402.744 225.193 402.989 224.99 403.192C224.788 403.395 224.542 403.496 224.254 403.496C223.966 403.496 223.721 403.395 223.518 403.192C223.316 402.989 223.214 402.744 223.214 402.456C223.214 402.168 223.316 401.923 223.518 401.72C223.721 401.517 223.966 401.416 224.254 401.416C224.542 401.416 224.788 401.517 224.99 401.72C225.193 401.923 225.294 402.168 225.294 402.456ZM224.99 405.16V413H223.518V405.16H224.99ZM226.746 405.16H228.154V406.248H228.218C228.442 405.864 228.783 405.544 229.242 405.288C229.711 405.032 230.197 404.904 230.698 404.904C231.658 404.904 232.394 405.181 232.906 405.736C233.429 406.28 233.69 407.059 233.69 408.072V413H232.218V408.168C232.186 406.888 231.541 406.248 230.282 406.248C229.695 406.248 229.205 406.488 228.81 406.968C228.415 407.437 228.218 408.003 228.218 408.664V413H226.746V405.16Z" fill="white"/>
<path d="M100.384 434.116V427.556H96.912V434.116H95.408V427.556H94.256V426.292H95.408V425.044C95.408 423.124 96.448 422.34 97.808 422.34C98.096 422.34 98.448 422.356 98.736 422.404V423.7H98.064C97.152 423.7 96.912 424.196 96.912 425.044V426.292H101.888V434.116H100.384ZM101.136 424.372C100.592 424.372 100.176 423.956 100.176 423.412C100.176 422.868 100.592 422.452 101.136 422.452C101.664 422.452 102.08 422.868 102.08 423.412C102.08 423.956 101.664 424.372 101.136 424.372ZM106.809 434.116H105.305V426.292H106.665L106.825 427.492C107.321 426.596 108.313 426.068 109.418 426.068C111.482 426.068 112.425 427.332 112.425 429.332V434.116H110.922V429.668C110.922 428.084 110.186 427.444 109.034 427.444C107.625 427.444 106.809 428.452 106.809 429.972V434.116ZM118.925 434.308C116.653 434.308 115.277 432.612 115.277 430.228C115.277 427.828 116.669 426.068 118.989 426.068C120.189 426.068 121.197 426.596 121.725 427.556V422.34H123.213V434.116H121.869L121.741 432.692C121.229 433.764 120.173 434.308 118.925 434.308ZM119.229 432.948C120.765 432.948 121.709 431.812 121.709 430.18C121.709 428.58 120.765 427.428 119.229 427.428C117.693 427.428 116.797 428.58 116.797 430.18C116.797 431.796 117.693 432.948 119.229 432.948ZM131.565 437.62V436.388H132.573C133.293 436.388 133.869 436.276 134.237 435.284L134.509 434.532L131.357 426.292H132.941L135.213 432.596L137.533 426.292H139.085L135.389 435.876C134.861 437.22 134.077 437.78 132.877 437.78C132.381 437.78 131.965 437.716 131.565 437.62ZM140.757 430.196C140.757 427.78 142.485 426.084 144.837 426.084C147.173 426.084 148.901 427.78 148.901 430.196C148.901 432.612 147.173 434.308 144.837 434.308C142.485 434.308 140.757 432.612 140.757 430.196ZM142.277 430.196C142.277 431.828 143.317 432.964 144.837 432.964C146.341 432.964 147.397 431.828 147.397 430.196C147.397 428.564 146.341 427.428 144.837 427.428C143.317 427.428 142.277 428.564 142.277 430.196ZM157.067 426.292H158.555V434.116H157.211L157.051 432.932C156.603 433.748 155.563 434.308 154.411 434.308C152.587 434.308 151.563 433.076 151.563 431.156V426.292H153.067V430.66C153.067 432.34 153.787 432.98 154.939 432.98C156.315 432.98 157.067 432.1 157.067 430.42V426.292ZM166.497 426.228V427.604H165.825C164.401 427.604 163.521 428.468 163.521 429.972V434.116H162.017V426.308H163.425L163.521 427.492C163.841 426.676 164.625 426.132 165.697 426.132C165.969 426.132 166.193 426.164 166.497 426.228ZM174.842 437.62V426.292H176.202L176.314 427.7C176.842 426.628 177.898 426.068 179.146 426.068C181.386 426.068 182.778 427.748 182.778 430.148C182.778 432.532 181.466 434.324 179.146 434.324C177.898 434.324 176.858 433.796 176.346 432.836V437.62H174.842ZM176.362 430.212C176.362 431.812 177.29 432.964 178.826 432.964C180.362 432.964 181.274 431.812 181.274 430.212C181.274 428.596 180.362 427.444 178.826 427.444C177.29 427.444 176.362 428.58 176.362 430.212ZM189.092 434.308C186.788 434.308 185.204 432.644 185.204 430.212C185.204 427.764 186.756 426.068 189.028 426.068C191.252 426.068 192.708 427.604 192.708 429.924V430.484L186.66 430.5C186.772 432.148 187.636 433.06 189.124 433.06C190.292 433.06 191.06 432.58 191.316 431.684H192.724C192.34 433.364 191.028 434.308 189.092 434.308ZM189.028 427.332C187.716 427.332 186.884 428.116 186.692 429.492H191.204C191.204 428.196 190.356 427.332 189.028 427.332ZM200.148 426.228V427.604H199.476C198.052 427.604 197.172 428.468 197.172 429.972V434.116H195.668V426.308H197.076L197.172 427.492C197.492 426.676 198.276 426.132 199.348 426.132C199.62 426.132 199.844 426.164 200.148 426.228ZM202.319 426.292H203.471V425.044C203.471 423.124 204.527 422.34 205.951 422.34C206.239 422.34 206.575 422.356 206.879 422.404V423.7H206.207C205.231 423.7 204.975 424.196 204.975 425.044V426.292H206.831V427.556H204.975V434.116H203.471V427.556H202.319V426.292ZM212.651 434.308C210.347 434.308 208.763 432.644 208.763 430.212C208.763 427.764 210.315 426.068 212.587 426.068C214.811 426.068 216.267 427.604 216.267 429.924V430.484L210.219 430.5C210.331 432.148 211.195 433.06 212.683 433.06C213.851 433.06 214.619 432.58 214.875 431.684H216.283C215.899 433.364 214.587 434.308 212.651 434.308ZM212.587 427.332C211.275 427.332 210.443 428.116 210.251 429.492H214.763C214.763 428.196 213.915 427.332 212.587 427.332ZM218.715 430.212C218.715 427.764 220.267 426.068 222.555 426.068C224.523 426.068 225.899 427.188 226.171 428.932H224.667C224.411 427.94 223.611 427.412 222.603 427.412C221.179 427.412 220.203 428.5 220.203 430.196C220.203 431.876 221.115 432.964 222.539 432.964C223.611 432.964 224.411 432.404 224.683 431.476H226.187C225.883 433.172 224.427 434.308 222.539 434.308C220.235 434.308 218.715 432.676 218.715 430.212ZM231.262 434.116H229.758V427.556H228.222V426.292H229.758V423.844H231.262V426.292H232.798V427.556H231.262V434.116ZM247.738 434.116H246.25V427.556H242.906V434.116H241.402V427.556H240.25V426.292H241.402V425.044C241.402 423.124 242.426 422.34 243.786 422.34C244.074 422.34 244.41 422.356 244.714 422.404V423.7H244.042C243.13 423.7 242.906 424.196 242.906 425.044V426.292H246.25V422.34H247.738V434.116ZM253.51 434.308C251.83 434.308 250.838 433.364 250.838 431.94C250.838 430.5 251.91 429.604 253.75 429.46L256.214 429.268V429.044C256.214 427.732 255.43 427.268 254.374 427.268C253.11 427.268 252.39 427.828 252.39 428.772H251.078C251.078 427.14 252.422 426.068 254.438 426.068C256.374 426.068 257.686 427.092 257.686 429.204V434.116H256.406L256.246 432.852C255.846 433.748 254.774 434.308 253.51 434.308ZM253.942 433.14C255.366 433.14 256.23 432.212 256.23 430.74V430.324L254.23 430.484C252.902 430.612 252.358 431.124 252.358 431.892C252.358 432.724 252.966 433.14 253.942 433.14ZM263.132 434.116H261.628V427.556H260.092V426.292H261.628V423.844H263.132V426.292H264.668V427.556H263.132V434.116ZM274.456 434.116H272.952V426.292H274.296L274.44 427.316C274.84 426.58 275.672 426.068 276.776 426.068C277.992 426.068 278.856 426.676 279.256 427.652C279.624 426.676 280.568 426.068 281.784 426.068C283.576 426.068 284.664 427.188 284.664 428.996V434.116H283.192V429.364C283.192 428.132 282.504 427.428 281.448 427.428C280.312 427.428 279.56 428.228 279.56 429.476V434.116H278.072V429.348C278.072 428.116 277.4 427.444 276.344 427.444C275.208 427.444 274.456 428.228 274.456 429.476V434.116ZM290.317 434.308C288.637 434.308 287.645 433.364 287.645 431.94C287.645 430.5 288.717 429.604 290.557 429.46L293.021 429.268V429.044C293.021 427.732 292.237 427.268 291.181 427.268C289.917 427.268 289.197 427.828 289.197 428.772H287.885C287.885 427.14 289.229 426.068 291.245 426.068C293.181 426.068 294.493 427.092 294.493 429.204V434.116H293.213L293.053 432.852C292.653 433.748 291.581 434.308 290.317 434.308ZM290.749 433.14C292.173 433.14 293.037 432.212 293.037 430.74V430.324L291.037 430.484C289.709 430.612 289.165 431.124 289.165 431.892C289.165 432.724 289.773 433.14 290.749 433.14ZM299.939 434.116H298.435V427.556H296.899V426.292H298.435V423.844H299.939V426.292H301.475V427.556H299.939V434.116ZM303.515 430.212C303.515 427.764 305.067 426.068 307.355 426.068C309.323 426.068 310.699 427.188 310.971 428.932H309.467C309.211 427.94 308.411 427.412 307.403 427.412C305.979 427.412 305.003 428.5 305.003 430.196C305.003 431.876 305.915 432.964 307.339 432.964C308.411 432.964 309.211 432.404 309.483 431.476H310.987C310.683 433.172 309.227 434.308 307.339 434.308C305.035 434.308 303.515 432.676 303.515 430.212ZM315.358 434.1H313.854V422.34H315.358V427.492C315.854 426.644 316.798 426.068 318.014 426.068C320.014 426.068 320.974 427.332 320.974 429.332V434.116H319.47V429.668C319.47 428.084 318.718 427.444 317.598 427.444C316.142 427.444 315.358 428.5 315.358 429.844V434.1ZM331.832 430.644H330.664C330.504 429.444 330.392 427.316 330.392 425.236V422.548H332.12V425.236C332.12 427.348 331.992 429.46 331.832 430.644ZM331.256 434.34C330.616 434.34 330.104 433.828 330.104 433.204C330.104 432.58 330.616 432.068 331.256 432.068C331.864 432.068 332.392 432.58 332.392 433.204C332.392 433.828 331.864 434.34 331.256 434.34Z" fill="#615D49"/>
<path d="M284.27 598.176C162.309 601.225 -10.3105 680.447 -172.172 529.471L-159.895 1155.08L-5.53397 1172.67L665.367 1045.54C658.778 983.419 643.794 857.952 636.574 853.068C627.548 846.963 577.606 821.482 565.571 746.95C553.535 672.419 406.231 595.128 284.27 598.176Z" fill="url(#paint0_linear_1126_1954)"/>
<path d="M431.25 256.942C309.934 260.946 -38.6364 54.2847 -189 174.878V-290.984L-36.9277 -312L638 -251.953C635.722 -205.417 629.457 -111.344 622.622 -107.341C614.079 -102.337 566.236 -80.8203 559.401 -24.7768C552.566 31.2668 552.566 252.939 431.25 256.942Z" fill="url(#paint1_linear_1126_1954)"/>
<rect x="26" y="352" width="376" height="222" fill="white"/>
<mask id="mask0_1126_1954" style="mask-type:alpha" maskUnits="userSpaceOnUse" x="43" y="402" width="38" height="43">
<rect width="42.2556" height="21.1278" transform="matrix(-0.866025 0.5 0 -1 80.5547 423.266)" fill="#D9D9D9"/>
</mask>
<g mask="url(#mask0_1126_1954)">
<rect width="42.2556" height="21.1278" transform="matrix(-0.866025 -0.5 0 -1 80.5547 465.521)" fill="#FF7C33"/>
<rect width="42.2556" height="42.2556" transform="matrix(-0.866025 0.5 -0.866025 -0.5 117.148 423.266)" fill="#FF7C33" fill-opacity="0.8"/>
</g>
<mask id="mask1_1126_1954" style="mask-type:alpha" maskUnits="userSpaceOnUse" x="80" y="402" width="37" height="43">
<rect width="42.2556" height="21.1278" transform="matrix(-0.866025 -0.5 0 -1 116.996 444.394)" fill="#D9D9D9"/>
</mask>
<g mask="url(#mask1_1126_1954)">
<rect width="42.2556" height="21.1278" transform="matrix(-0.866025 0.5 0 -1 116.996 444.394)" fill="#FF7C33"/>
<rect width="42.2556" height="42.2556" transform="matrix(-0.866025 -0.5 0.866025 -0.5 80.4023 444.394)" fill="#FF7C33" fill-opacity="0.8"/>
</g>
<path d="M44.0078 434.445L61.9561 433.847V497.862H44.0078V434.445Z" fill="#FF7C33"/>
<path d="M117 435.037L99.0517 434.444V497.862H117V435.037Z" fill="#FF7C33"/>
<rect x="58.3672" y="479.914" width="43.0759" height="17.9483" fill="#FF7C33"/>
<rect x="44.0078" y="479.914" width="17.9483" height="17.9483" fill="#FF965C"/>
<rect x="99.0508" y="479.914" width="17.9483" height="17.9483" fill="#FF965C"/>
<path d="M161.99 432.029L137.381 431.953V445.149L158.274 445.225L158.198 454.932L137.381 454.856V477H127.294V421.867H137.381L162.065 421.943L161.99 432.029ZM174.207 466.914H198.74V477H165.448H164.045V421.867H174.207V466.914ZM236.476 477L231.584 463.956H210.767L205.8 477H193.666L215.659 421.867H226.693L248.648 477H236.476ZM214.18 454.78H228.096L221.157 436.466L214.18 454.78ZM278.156 421.867V432.029H261.699V477H251.537V432.029H235.081V421.867H278.156ZM288.022 477H277.936V421.867H288.022V477ZM327.54 432.029L302.931 431.953V445.149L323.824 445.225L323.748 454.932L302.931 454.856V477H292.845V421.867H302.931L327.616 421.943L327.54 432.029ZM372.936 421.867L353.522 454.552V477H343.398V454.552L324.135 421.867H336.269L348.479 444.77L360.802 421.867H372.936Z" fill="#FF7C33"/>
<path d="M132.766 492V485.048H129.086V492H127.492V485.048H126.271V483.708H127.492V482.385C127.492 480.35 128.594 479.519 130.036 479.519C130.341 479.519 130.714 479.536 131.019 479.587V480.961H130.307C129.341 480.961 129.086 481.486 129.086 482.385V483.708H134.36V492H132.766ZM133.563 481.673C132.986 481.673 132.546 481.232 132.546 480.656C132.546 480.079 132.986 479.638 133.563 479.638C134.123 479.638 134.563 480.079 134.563 480.656C134.563 481.232 134.123 481.673 133.563 481.673ZM139.576 492H137.982V483.708H139.423L139.593 484.98C140.119 484.03 141.17 483.47 142.34 483.47C144.527 483.47 145.528 484.81 145.528 486.93V492H143.934V487.286C143.934 485.607 143.154 484.929 141.933 484.929C140.441 484.929 139.576 485.997 139.576 487.608V492ZM152.416 492.203C150.008 492.203 148.55 490.406 148.55 487.879C148.55 485.336 150.025 483.47 152.484 483.47C153.755 483.47 154.824 484.03 155.383 485.048V479.519H156.96V492H155.536L155.4 490.491C154.858 491.627 153.739 492.203 152.416 492.203ZM152.738 490.762C154.366 490.762 155.366 489.558 155.366 487.829C155.366 486.133 154.366 484.912 152.738 484.912C151.11 484.912 150.161 486.133 150.161 487.829C150.161 489.541 151.11 490.762 152.738 490.762ZM165.813 495.714V494.408H166.881C167.644 494.408 168.255 494.289 168.645 493.238L168.933 492.441L165.592 483.708H167.271L169.679 490.389L172.138 483.708H173.783L169.866 493.865C169.306 495.29 168.475 495.883 167.203 495.883C166.678 495.883 166.237 495.815 165.813 495.714ZM175.555 487.845C175.555 485.285 177.386 483.487 179.879 483.487C182.355 483.487 184.186 485.285 184.186 487.845C184.186 490.406 182.355 492.203 179.879 492.203C177.386 492.203 175.555 490.406 175.555 487.845ZM177.166 487.845C177.166 489.575 178.268 490.779 179.879 490.779C181.473 490.779 182.592 489.575 182.592 487.845C182.592 486.116 181.473 484.912 179.879 484.912C178.268 484.912 177.166 486.116 177.166 487.845ZM192.84 483.708H194.417V492H192.992L192.823 490.745C192.348 491.61 191.246 492.203 190.025 492.203C188.092 492.203 187.007 490.898 187.007 488.863V483.708H188.601V488.337C188.601 490.118 189.364 490.796 190.585 490.796C192.043 490.796 192.84 489.863 192.84 488.083V483.708ZM202.834 483.64V485.098H202.122C200.613 485.098 199.68 486.014 199.68 487.608V492H198.086V483.725H199.578L199.68 484.98C200.019 484.115 200.85 483.538 201.986 483.538C202.275 483.538 202.512 483.572 202.834 483.64ZM211.679 495.714V483.708H213.12L213.239 485.2C213.799 484.064 214.918 483.47 216.241 483.47C218.615 483.47 220.09 485.251 220.09 487.795C220.09 490.321 218.699 492.22 216.241 492.22C214.918 492.22 213.816 491.661 213.273 490.643V495.714H211.679ZM213.29 487.862C213.29 489.558 214.274 490.779 215.901 490.779C217.529 490.779 218.496 489.558 218.496 487.862C218.496 486.15 217.529 484.929 215.901 484.929C214.274 484.929 213.29 486.133 213.29 487.862ZM226.781 492.203C224.34 492.203 222.661 490.44 222.661 487.862C222.661 485.268 224.306 483.47 226.714 483.47C229.071 483.47 230.614 485.098 230.614 487.557V488.151L224.204 488.168C224.323 489.914 225.238 490.881 226.815 490.881C228.053 490.881 228.867 490.372 229.138 489.422H230.631C230.224 491.203 228.833 492.203 226.781 492.203ZM226.714 484.81C225.323 484.81 224.441 485.641 224.238 487.099H229.02C229.02 485.726 228.121 484.81 226.714 484.81ZM238.499 483.64V485.098H237.787C236.277 485.098 235.345 486.014 235.345 487.608V492H233.751V483.725H235.243L235.345 484.98C235.684 484.115 236.515 483.538 237.651 483.538C237.939 483.538 238.177 483.572 238.499 483.64ZM240.8 483.708H242.021V482.385C242.021 480.35 243.14 479.519 244.649 479.519C244.954 479.519 245.31 479.536 245.633 479.587V480.961H244.92C243.886 480.961 243.615 481.486 243.615 482.385V483.708H245.582V485.048H243.615V492H242.021V485.048H240.8V483.708ZM251.75 492.203C249.308 492.203 247.629 490.44 247.629 487.862C247.629 485.268 249.274 483.47 251.682 483.47C254.039 483.47 255.582 485.098 255.582 487.557V488.151L249.172 488.168C249.291 489.914 250.207 490.881 251.784 490.881C253.021 490.881 253.835 490.372 254.107 489.422H255.599C255.192 491.203 253.801 492.203 251.75 492.203ZM251.682 484.81C250.291 484.81 249.41 485.641 249.206 487.099H253.988C253.988 485.726 253.089 484.81 251.682 484.81ZM258.176 487.862C258.176 485.268 259.821 483.47 262.246 483.47C264.332 483.47 265.79 484.658 266.078 486.506H264.484C264.213 485.454 263.365 484.895 262.297 484.895C260.788 484.895 259.753 486.048 259.753 487.845C259.753 489.626 260.72 490.779 262.229 490.779C263.365 490.779 264.213 490.186 264.501 489.202H266.095C265.773 491 264.23 492.203 262.229 492.203C259.787 492.203 258.176 490.474 258.176 487.862ZM271.474 492H269.88V485.048H268.252V483.708H269.88V481.113H271.474V483.708H273.102V485.048H271.474V492ZM288.936 492H287.359V485.048H283.815V492H282.221V485.048H281V483.708H282.221V482.385C282.221 480.35 283.307 479.519 284.748 479.519C285.053 479.519 285.409 479.536 285.731 479.587V480.961H285.019C284.053 480.961 283.815 481.486 283.815 482.385V483.708H287.359V479.519H288.936V492ZM295.053 492.203C293.273 492.203 292.221 491.203 292.221 489.694C292.221 488.168 293.357 487.218 295.307 487.065L297.919 486.862V486.625C297.919 485.234 297.088 484.742 295.969 484.742C294.629 484.742 293.866 485.336 293.866 486.336H292.476C292.476 484.607 293.9 483.47 296.037 483.47C298.088 483.47 299.479 484.556 299.479 486.794V492H298.122L297.953 490.66C297.529 491.61 296.393 492.203 295.053 492.203ZM295.511 490.966C297.02 490.966 297.936 489.982 297.936 488.422V487.981L295.816 488.151C294.409 488.286 293.832 488.829 293.832 489.643C293.832 490.525 294.477 490.966 295.511 490.966ZM305.251 492H303.657V485.048H302.029V483.708H303.657V481.113H305.251V483.708H306.878V485.048H305.251V492ZM317.253 492H315.659V483.708H317.083L317.236 484.793C317.66 484.013 318.542 483.47 319.712 483.47C321 483.47 321.916 484.115 322.34 485.149C322.73 484.115 323.731 483.47 325.019 483.47C326.919 483.47 328.072 484.658 328.072 486.574V492H326.512V486.964C326.512 485.658 325.782 484.912 324.663 484.912C323.459 484.912 322.662 485.76 322.662 487.082V492H321.085V486.947C321.085 485.641 320.373 484.929 319.254 484.929C318.05 484.929 317.253 485.76 317.253 487.082V492ZM334.063 492.203C332.282 492.203 331.231 491.203 331.231 489.694C331.231 488.168 332.367 487.218 334.317 487.065L336.928 486.862V486.625C336.928 485.234 336.098 484.742 334.978 484.742C333.639 484.742 332.876 485.336 332.876 486.336H331.485C331.485 484.607 332.91 483.47 335.046 483.47C337.098 483.47 338.489 484.556 338.489 486.794V492H337.132L336.962 490.66C336.538 491.61 335.402 492.203 334.063 492.203ZM334.521 490.966C336.03 490.966 336.945 489.982 336.945 488.422V487.981L334.826 488.151C333.418 488.286 332.842 488.829 332.842 489.643C332.842 490.525 333.486 490.966 334.521 490.966ZM344.26 492H342.666V485.048H341.038V483.708H342.666V481.113H344.26V483.708H345.888V485.048H344.26V492ZM348.05 487.862C348.05 485.268 349.695 483.47 352.12 483.47C354.205 483.47 355.664 484.658 355.952 486.506H354.358C354.087 485.454 353.239 484.895 352.17 484.895C350.661 484.895 349.627 486.048 349.627 487.845C349.627 489.626 350.593 490.779 352.103 490.779C353.239 490.779 354.087 490.186 354.375 489.202H355.969C355.647 491 354.104 492.203 352.103 492.203C349.661 492.203 348.05 490.474 348.05 487.862ZM360.601 491.983H359.007V479.519H360.601V484.98C361.127 484.081 362.127 483.47 363.416 483.47C365.536 483.47 366.553 484.81 366.553 486.93V492H364.959V487.286C364.959 485.607 364.162 484.929 362.975 484.929C361.432 484.929 360.601 486.048 360.601 487.472V491.983ZM372.068 488.32H370.83C370.66 487.048 370.541 484.793 370.541 482.589V479.74H372.373V482.589C372.373 484.827 372.237 487.065 372.068 488.32ZM371.457 492.237C370.779 492.237 370.236 491.695 370.236 491.033C370.236 490.372 370.779 489.829 371.457 489.829C372.102 489.829 372.661 490.372 372.661 491.033C372.661 491.695 372.102 492.237 371.457 492.237Z" fill="#FFB891"/>
</g>
<defs>
<linearGradient id="paint0_linear_1126_1954" x1="211.438" y1="502.951" x2="256.486" y2="1154.56" gradientUnits="userSpaceOnUse">
<stop stop-color="#F7803D"/>
<stop offset="1" stop-color="#DD4736"/>
</linearGradient>
<linearGradient id="paint1_linear_1126_1954" x1="224.5" y1="257" x2="224.5" y2="-312" gradientUnits="userSpaceOnUse">
<stop stop-color="#F7803D"/>
<stop offset="1" stop-color="#DD4736"/>
</linearGradient>
<clipPath id="clip0_1126_1954">
<rect width="428" height="926" fill="white"/>
</clipPath>
</defs>
</svg>
